# xmcd CD database file
#
# Track frame offsets:
#	150
#	17768
#	40306
#	78854
#	111809
#	150487
#	183704
#	210703
#
# Disc length: 3246 seconds
#
# Revision: 0
# Processed by: cddbd v1.5.2PL0 Copyright (c) Steve Scherf et al.
# Submitted via: CDex 1.51
#
DISCID=5f0cac08
DTITLE=Zuzana Dumkova - Balance
DYEAR=2007
DGENRE=Jazz
TTITLE0=Balance
TTITLE1=Minulost
TTITLE2=Prisla Driv
TTITLE3=Kites Song
TTITLE4=Mr. Pejsek
TTITLE5=Kocki Psum - Psi Kockam
TTITLE6=Pousti
TTITLE7=Nocni Vylet
EXTD=YEAR: 2007
EXTT0=
EXTT1=
EXTT2=
EXTT3=
EXTT4=
EXTT5=
EXTT6=
EXTT7=
PLAYORDER=
